<svg width="109" height="108" viewBox="0 0 109 108" fill="none" xmlns="http://www.w3.org/2000/svg">
<g clip-path="url(#clip0_26_11)">
<path d="M106.747 39.5742H99.5495C98.7685 39.5742 98.0932 40.0596 97.8399 40.7983L92.8378 55.7834H87.9413L83.0658 47.6577C82.7493 47.109 82.1583 46.7924 81.5251 46.7924H74.328V41.3893C74.328 40.3973 73.526 39.5953 72.534 39.5953H59.9339V32.3982H65.337C66.3289 32.3982 67.131 31.5962 67.131 30.6042V19.777C67.131 18.785 66.3289 17.983 65.337 17.983H32.8974C31.9054 17.983 31.1034 18.785 31.1034 19.777V30.5831C31.1034 31.5751 31.9054 32.3771 32.8974 32.3771H38.3005V39.5742H23.8852C23.3998 39.5742 22.9566 39.7641 22.6189 40.1018C22.2812 40.4395 22.0912 40.9039 22.0912 41.3682V46.7713H9.49107C8.49909 46.7713 7.69707 47.5733 7.69707 48.5653V59.3714H4.08798V53.9894C4.08798 52.9975 3.28596 52.1955 2.29399 52.1955C1.30202 52.1955 0.5 52.9975 0.5 53.9894V68.4047C0.5 69.3967 1.30202 70.1987 2.29399 70.1987C3.28596 70.1987 4.08798 69.3967 4.08798 68.4047V63.0016H7.69707V77.4169C7.69707 78.4088 8.49909 79.2109 9.49107 79.2109H22.9355L29.6049 89.215C29.9426 89.7215 30.5124 90.017 31.1034 90.017H81.5251C82.2005 90.017 82.8337 89.6371 83.1292 89.025L88.0257 79.2109H93.0067L97.9032 89.025C98.2198 89.6371 98.8319 90.017 99.5072 90.017H106.704C107.696 90.017 108.498 89.215 108.498 88.223V41.3893C108.541 40.3762 107.739 39.5742 106.747 39.5742ZM22.0912 75.6018H11.2851V50.3804H22.0912V75.6018ZM56.3037 39.5742H41.8885V32.3771H56.3037V39.5742ZM92.3313 75.6018H88.7222V59.3925H92.3313V75.6018Z" fill="#CD313C" stroke="#CD313C" stroke-width="0.211058"/>
</g>
<defs>
<clipPath id="clip0_26_11">
<rect width="108" height="108" fill="white" transform="translate(0.5)"/>
</clipPath>
</defs>
</svg>
