<svg width="109" height="108" viewBox="0 0 109 108" fill="none" xmlns="http://www.w3.org/2000/svg">
<g clip-path="url(#clip0_26_20)">
<g clip-path="url(#clip1_26_20)">
<path d="M52.1987 78.298C44.2054 78.298 37.7323 81.7605 34.9958 87.3038H48.8316L47.0966 84.7024C46.5435 83.8738 46.7669 82.7549 47.5957 82.2036C48.4263 81.6488 49.5433 81.8739 50.0945 82.7027L53.1625 87.3057H69.4014C66.6651 81.7624 60.192 78.298 52.1987 78.298Z" fill="#CD313C" stroke="#CD313C" stroke-width="0.211117"/>
<path d="M90.0314 63.885C90.0314 62.8907 90.8366 62.0836 91.8329 62.0836H108C107.798 55.9764 106.584 50.1232 104.51 44.6863L96.4863 48.518C96.2359 48.6369 95.971 48.6945 95.7117 48.6945C95.0381 48.6945 94.3931 48.3162 94.0849 47.6677C93.6544 46.7704 94.0344 45.695 94.9333 45.2662L103.111 41.3622C100.617 35.9469 97.2556 31.016 93.2022 26.7409L87.1706 33.2625C86.8138 33.6463 86.331 33.8408 85.8465 33.8408C85.4086 33.8408 84.9709 33.6822 84.6249 33.3615C83.8934 32.686 83.8484 31.5455 84.524 30.8142L90.6403 24.2027C86.5634 20.4338 81.9064 17.2903 76.8208 14.9104L73.1186 23.1163C72.8178 23.7847 72.1638 24.1792 71.4757 24.1792C71.2289 24.1792 70.9766 24.1271 70.737 24.019C69.829 23.6101 69.4256 22.5435 69.8362 21.6355L73.5077 13.498C67.9843 11.3524 62.0249 10.0912 55.8022 9.88599V26.0529C55.8022 27.0492 54.9951 27.8544 54.0007 27.8544C53.0045 27.8544 52.1993 27.0492 52.1993 26.0529V9.88599C46.3623 10.0787 40.7559 11.1867 35.5261 13.0945L38.6933 21.5436C39.0429 22.4751 38.5708 23.5144 37.6413 23.864C37.4306 23.9396 37.218 23.9776 37.0071 23.9776C36.2794 23.9776 35.5911 23.5309 35.319 22.8084L32.1879 14.4548C26.5997 16.9301 21.5103 20.3223 17.1055 24.4442L23.427 30.7657C24.1315 31.4683 24.1315 32.6087 23.427 33.313C23.0757 33.6643 22.6144 33.8408 22.1533 33.8408C21.692 33.8408 21.231 33.6643 20.8797 33.313L14.5582 26.9915C10.6848 31.1296 7.45475 35.8713 5.02627 41.0633L13.2322 44.7673C14.1402 45.1763 14.5419 46.2428 14.133 47.149C13.8322 47.8154 13.1764 48.2119 12.4901 48.2119C12.2433 48.2119 11.991 48.1598 11.7497 48.0515L3.61221 44.3783C1.46642 49.9015 0.205417 55.8609 0 62.0836H16.1688C17.1632 62.0836 17.9703 62.8907 17.9703 63.885C17.9703 64.8813 17.1632 65.6865 16.1688 65.6865H0.028923C0.219984 71.6136 1.34587 77.3549 3.37618 82.7794L11.5749 79.225C12.4882 78.8268 13.5476 79.252 13.9438 80.1636C14.3384 81.0752 13.9204 82.1363 13.0071 82.5309L4.72902 86.1178C6.54146 90.11 8.84369 93.9039 11.6433 97.4332C11.9838 97.8637 12.5026 98.1143 13.054 98.1143H94.9462C95.4974 98.1143 96.0164 97.8639 96.3569 97.4332C99.0068 94.0931 101.19 90.5062 102.956 86.75L94.7609 83.001C93.8564 82.5866 93.4583 81.5184 93.8708 80.6139C94.2833 79.7114 95.3499 79.3061 96.2596 79.7239L104.366 83.4315C106.553 77.8162 107.771 71.853 107.971 65.6865H91.8331C90.8368 65.6865 90.0314 64.8813 90.0314 63.885ZM73.452 90.1946C73.1115 90.6432 72.5801 90.908 72.0162 90.908H52.2065H52.201H52.1938L32.3824 90.9061C31.8168 90.9061 31.2852 90.6413 30.9447 90.1908C30.6041 89.7422 30.4944 89.1585 30.6493 88.6144C33.04 80.1598 41.4982 74.694 52.1993 74.694C62.8985 74.694 71.3567 80.1598 73.7473 88.6163C73.9023 89.1604 73.7925 89.7441 73.452 90.1946ZM73.5601 46.7974L68.4238 55.3582C66.624 58.3559 65.0785 61.6024 63.5831 64.7424C63.0912 65.7747 62.5995 66.8069 62.0988 67.8338C60.5585 70.9883 57.3913 72.889 53.9792 72.889C53.2929 72.889 52.5955 72.8115 51.902 72.6548C48.6016 71.9018 45.984 69.2841 45.2309 65.9837C44.2832 61.8313 46.265 57.6372 50.0482 55.7889C51.0858 55.281 52.129 54.7855 53.1721 54.2883C56.3032 52.7965 59.5388 51.2545 62.5275 49.462L71.0883 44.3257C71.7964 43.9024 72.7042 44.0086 73.2899 44.5959C73.8736 45.1816 73.9853 46.0877 73.5601 46.7974Z" fill="#CD313C" stroke="#CD313C" stroke-width="0.211117"/>
<path d="M54.7214 57.5408C53.691 58.0327 52.6569 58.5244 51.6317 59.0251C49.3563 60.1367 48.1692 62.6677 48.7439 65.1828C49.1853 67.1105 50.7761 68.7013 52.7036 69.1408C55.2095 69.7138 57.7514 68.5284 58.8612 66.2529C59.3567 65.2368 59.8448 64.2154 60.3295 63.1938C61.8627 59.9762 63.4463 56.6507 65.336 53.5034L66.7646 51.1218L64.3811 52.5504C61.2447 54.4331 57.9281 56.0131 54.7214 57.5408Z" fill="#CD313C" stroke="#CD313C" stroke-width="0.211117"/>
</g>
</g>
<defs>
<clipPath id="clip0_26_20">
<rect width="108" height="108" fill="white" transform="translate(0.5)"/>
</clipPath>
<clipPath id="clip1_26_20">
<rect width="108" height="108" fill="white"/>
</clipPath>
</defs>
</svg>
