<svg width="109" height="56" viewBox="0 0 109 56" fill="none" xmlns="http://www.w3.org/2000/svg">
<path d="M100.074 15.418C95.4392 15.1265 91.5691 12.961 89.4559 9.478L88.9644 8.6699C86.0955 3.93941 80.8754 1 75.344 1H51.8468C47.3001 1 42.9583 2.94948 39.9379 6.3479L37.4503 9.14514C35.8519 10.9434 34.0376 12.5022 32.0773 13.836C36.3128 17.0616 41.5778 19.0001 47.2999 19.0001H53.7548L49.6273 14.8725C48.9234 14.1686 48.9234 13.031 49.6273 12.3273C50.3312 11.6237 51.4688 11.6234 52.1725 12.3273L59.3724 19.5273C59.538 19.6929 59.6694 19.8909 59.7612 20.1122C59.943 20.5514 59.943 21.0481 59.7612 21.4873C59.6694 21.7088 59.538 21.9066 59.3724 22.0722L52.1725 29.2722C51.8215 29.6232 51.3606 29.7995 50.8999 29.7995C50.439 29.7995 49.9783 29.6232 49.6273 29.2722C48.9234 28.5683 48.9234 27.4307 49.6273 26.727L53.7548 22.5996H47.2999C40.2349 22.5996 33.7638 20.031 28.7473 15.7937C25.8294 17.2517 22.6723 18.2399 19.3802 18.6502L8.384 20.0253C3.88934 20.5858 0.5 24.4269 0.5 28.9558V36.9999C0.5 41.9624 4.53734 45.9999 9.50007 45.9999H16.862C17.7241 51.0993 22.1595 55 27.5 55C32.8405 55 37.2759 51.0993 38.138 45.9999H74.4621C75.3242 51.0993 79.7593 55 85.1001 55C90.4406 55 94.876 51.0993 95.7381 45.9999H99.5001C104.463 45.9999 108.5 41.9626 108.5 36.9999V24.3999C108.5 19.6625 104.799 15.7169 100.074 15.418ZM27.5 51.3999C23.5291 51.3999 20.3001 48.1707 20.3001 44.2C20.3001 40.2293 23.5293 37.0001 27.5 37.0001C31.4707 37.0001 34.6999 40.2293 34.6999 44.2C34.6999 48.1707 31.4709 51.3999 27.5 51.3999ZM85.1001 51.3999C81.1292 51.3999 77.9001 48.1707 77.9001 44.2C77.9001 40.2293 81.1294 37.0001 85.1001 37.0001C89.071 37.0001 92.3 40.2293 92.3 44.2C92.3 48.1707 89.0708 51.3999 85.1001 51.3999Z" fill="#CD313C" stroke="#CD313C" stroke-width="0.210938"/>
</svg>
