<svg width="330" height="60" viewBox="0 0 330 60" fill="none" xmlns="http://www.w3.org/2000/svg">
<g clip-path="url(#clip0_11_54)">
<path d="M102.96 0H114.84L116.82 0.631579V2.52632L112.86 5.05263L116.16 4.73684H123.42L124.74 5.36842L124.08 6.94737H122.76L124.08 7.89474L128.7 8.52632H148.5L170.28 7.26316L175.56 6.94737H188.76L201.96 8.21053L211.86 10.1053L225.06 14.2105L232.32 16.4211L238.26 17.3684L242.88 17.6842L243.54 13.8947L246.18 11.0526L250.8 8.52632L256.08 7.26316L258.72 6.94737H269.28L288.42 9.15789L295.68 9.78947L303.6 10.1053L313.5 9.15789L324.06 7.57895H328.68L330 8.52632V13.5789L327.36 16.4211L324.06 18.3158L316.8 20.5263L310.86 21.4737L307.56 21.7895H291.72L282.48 20.8421L272.58 19.8947L268.62 21.1579L264 24.6316L260.04 25.8947L236.94 26.2105L232.32 27.4737L226.38 32.2105L221.1 35.3684L215.16 38.5263L209.22 40.4211L198.66 42.6316L192.06 45.4737L186.78 48.9474L183.48 52.1053L181.5 52.7368L170.94 52.1053L163.02 51.1579L159.06 51.4737L153.78 52.7368L163.68 54L163.02 55.8947L155.76 60L148.5 59.6842L141.9 58.1053L137.28 57.7895L132.66 59.0526L124.74 59.3684L122.76 60H104.94L104.28 57.7895L107.58 55.5789H108.9V54.9474L116.82 54L120.12 52.4211L114.18 51.7895L111.54 50.2105L109.56 49.2632L106.92 48.6316L98.34 48.3158L87.12 48.9474L83.16 49.2632H77.88L75.9 48.3158L73.26 43.8947L74.58 40.4211L77.22 34.4211V30.3158L73.92 27.7895L68.64 25.2632L58.74 22.4211L53.46 21.4737L50.16 23.0526L43.56 25.5789L32.34 28.7368L26.4 31.2632L21.78 34.7368L19.8 36.3158L13.86 37.5789L8.58 37.2632L3.96 36.3158L1.98 35.0526L0 32.5263V29.6842L5.94 24.9474L12.54 20.2105L15.18 17.6842L16.5 14.8421L21.12 12.3158L27.72 10.1053L29.04 9.78947L30.36 5.05263L33 2.84211L34.98 2.21053H38.94L41.58 3.78947L44.22 5.05263L50.16 3.15789L58.08 1.26316L62.04 0.947368L64.02 1.26316L64.68 2.84211L72.6 1.26316L75.24 0.947368H82.5L84.48 2.52632L94.38 0.947368L102.96 0Z" fill="#FCFCFC"/>
<path d="M102.96 0H114.84L116.82 0.631579V2.52632L112.86 5.05263L116.16 4.73684H123.42L124.74 5.36842L124.08 6.94737H122.76L124.08 7.89474L128.7 8.52632H148.5L170.28 7.26316L175.56 6.94737H188.76L201.96 8.21053L211.86 10.1053L225.06 14.2105L232.32 16.4211L238.26 17.3684L242.88 17.6842L243.54 13.8947L246.18 11.0526L250.8 8.52632L256.08 7.26316L258.72 6.94737H269.28L288.42 9.15789L295.68 9.78947L303.6 10.1053L313.5 9.15789L324.06 7.57895H328.68L330 8.52632V13.5789L327.36 16.4211L324.06 18.3158L316.8 20.5263L310.86 21.4737L307.56 21.7895H291.72L282.48 20.8421L272.58 19.8947L268.62 21.1579L264 24.6316L260.04 25.8947L236.94 26.2105L232.32 27.4737L226.38 32.2105L221.1 35.3684L215.16 38.5263L209.22 40.4211L198.66 42.6316L192.06 45.4737L186.78 48.9474L183.48 52.1053L181.5 52.7368L170.94 52.1053L163.02 51.1579L159.06 51.4737L153.78 52.7368L163.68 54L163.02 55.8947L155.76 60L148.5 59.6842L141.9 58.1053L137.28 57.7895L132.66 59.0526L124.74 59.3684L122.76 60H104.94L104.28 57.7895L107.58 55.5789H108.9V54.9474L116.82 54L120.12 52.4211L114.18 51.7895L111.54 50.2105L109.56 49.2632L106.92 48.6316L98.34 48.3158L87.12 48.9474L83.16 49.2632H77.88L75.9 48.3158L73.26 43.8947L74.58 40.4211L77.22 34.4211V30.3158L73.92 27.7895L68.64 25.2632L58.74 22.4211L53.46 21.4737L50.16 23.0526L43.56 25.5789L32.34 28.7368L26.4 31.2632L21.78 34.7368L19.8 36.3158L13.86 37.5789L8.58 37.2632L3.96 36.3158L1.98 35.0526L0 32.5263V29.6842L5.94 24.9474L12.54 20.2105L15.18 17.6842L16.5 14.8421L21.12 12.3158L27.72 10.1053L29.04 9.78947L30.36 5.05263L33 2.84211L34.98 2.21053H38.94L41.58 3.78947L44.22 5.05263L50.16 3.15789L58.08 1.26316L62.04 0.947368L64.02 1.26316L64.68 2.84211L72.6 1.26316L75.24 0.947368H82.5L84.48 2.52632L94.38 0.947368L102.96 0ZM104.28 0.631579L90.42 2.21053L85.8 3.15789H82.5L81.84 1.57895H75.24L66.66 3.15789H64.02L62.7 1.89474H58.74L47.52 4.73684L44.88 5.68421L42.24 5.36842L38.28 2.84211L34.98 3.15789L32.34 4.73684L31.02 6.31579V10.4211L27.72 11.0526L27.06 12L33.66 11.0526V11.6842L29.7 12.3158L25.74 13.5789L22.44 14.5263L20.46 17.6842L19.14 18.6316V15.7895L17.82 16.1053L14.52 20.2105L5.28 26.8421L1.32 30V32.2105L2.64 33.1579L3.96 35.3684L6.6 36.3158L9.24 36.6316H15.18L19.14 35.6842L23.1 32.2105L29.04 29.0526L35.64 26.8421L45.54 24L52.14 21.1579V20.5263L58.08 21.4737L65.34 23.3684L73.26 26.2105L77.88 29.0526L79.2 30.6316L80.52 30V27.1579L73.92 24.6316L62.04 21.1579L55.44 19.2632H54.12V17.3684H52.8L50.16 20.5263L44.88 23.0526L33 26.2105L27.06 28.4211L19.8 31.8947L18.48 33.4737V35.0526H7.26L5.94 31.8947H3.3L3.96 30.9474L8.58 30.3158L13.2 26.8421L19.8 22.1053L22.44 19.8947L21.78 17.6842H23.76L25.08 16.1053L25.74 15.7895H35.64L36.3 16.7368L41.58 18L45.54 18.3158L49.5 17.3684L51.48 16.4211V12.9474L48.84 10.1053V9.15789L50.82 8.52632L64.68 8.21053H73.92L91.74 9.15789L101.64 10.4211H108.24L106.92 9.15789V8.21053L109.56 7.26316L120.12 6.31579L119.46 7.57895L112.86 8.21053L110.88 9.15789L111.54 10.7368L115.5 11.3684L124.08 12H151.8L167.64 11.0526L176.22 10.1053L181.5 9.78947H192.72L204.6 11.6842L214.5 14.2105L223.08 16.7368L233.64 18.9474L242.88 19.8947H246.84L248.16 19.2632L248.82 15.1579L251.46 11.6842L255.42 10.1053L260.04 9.15789H269.94L288.42 11.0526L297 11.6842H310.2L320.76 10.4211L325.38 10.1053L326.04 10.4211V12.9474L323.4 15.4737L320.1 17.0526L315.48 18.6316L308.22 19.8947L304.92 20.2105H297.66L288.42 19.5789L273.9 18H267.96L264.66 19.2632L260.7 22.4211L255.42 24L236.28 24.3158L231.66 25.2632L226.38 28.1053L218.46 34.1053L213.84 36.6316L206.58 38.8421L190.74 42L184.14 43.8947L174.9 47.6842L171.6 48.3158L157.74 49.2632L147.18 51.7895L143.22 53.3684L139.92 54.3158L136.62 55.2632L131.34 56.8421L130.02 57.4737L122.1 57.7895L118.8 58.4211L107.58 58.7368L109.56 57.1579L110.88 56.5263L114.18 56.2105V56.8421H110.88V57.7895H119.46L120.78 56.8421L116.82 56.5263V55.8947L120.12 55.5789L127.38 52.7368L139.92 49.5789L150.48 47.0526L155.76 45.4737L159.72 43.8947L161.7 43.5789L164.34 41.6842L167.64 39.4737L168.96 36.9474L170.28 32.8421V30.6316L168.96 28.7368H164.34L163.02 29.0526V30.9474L152.46 32.2105L146.52 32.8421L134.64 34.4211H124.08L120.78 35.3684V33.7895H117.48L116.16 36.3158L116.82 37.8947L118.14 38.2105L120.78 42L122.1 43.2632L122.76 45.4737L127.38 47.6842L124.08 47.0526L119.46 45.4737L117.48 41.0526L112.86 37.2632L113.52 34.7368L116.82 33.4737L117.48 31.2632H121.44L125.4 31.8947H139.92L147.18 31.2632L147.84 30.9474L153.12 30.6316L158.4 28.7368L162.36 27.1579H168.3L172.92 27.4737L178.2 25.8947L174.24 32.5263V39.4737L166.32 43.2632L163.02 45.4737L164.34 46.7368H173.58L178.86 44.5263L182.82 42.3158L184.8 40.1053L192.06 38.2105L199.98 35.3684L201.3 34.4211H202.62V35.6842L205.92 35.0526L211.86 31.8947L215.16 27.7895L219.12 25.5789L227.7 24.6316L231.66 23.3684L257.4 23.0526L260.04 22.4211L265.32 17.6842L267.96 16.7368H273.9L285.78 18.3158L291.72 18.6316H307.56L314.82 17.3684L318.78 16.1053L323.4 13.5789L324.06 11.6842L318.78 12L313.5 12.6316H299.64L282.48 11.3684L267.3 9.47368H260.7L256.08 10.4211L252.78 12.3158L250.14 15.7895L248.16 19.8947L244.86 20.8421H239.58L229.68 19.2632L217.14 16.1053L208.56 13.2632L199.32 11.0526L189.42 9.78947H184.14L176.22 10.7368L168.96 12.6316L165 13.8947L163.02 14.2105H128.04L117.48 13.8947L115.5 14.5263L112.86 14.2105L110.22 13.2632L102.96 12.9474L96.36 11.0526L92.4 10.4211L74.58 9.15789L58.08 8.8421L51.48 9.47368L50.82 10.7368L52.14 12.3158L52.8 15.1579L60.06 18L73.92 22.1053L81.18 24.6316L81.84 24.9474L83.16 28.4211L84.48 29.0526L85.14 26.5263L87.78 25.8947L88.44 24.6316L83.16 23.0526L73.92 19.8947L63.36 16.7368L55.44 13.8947L66.66 16.1053L76.56 18L87.12 21.1579L91.08 23.0526L94.38 23.3684L95.7 26.2105L93.72 27.1579L90.42 27.4737L88.44 28.7368V31.5789L86.46 31.2632L87.78 32.8421L88.44 33.4737H92.4L99 36.3158L107.58 41.3684L113.52 46.4211L118.8 48L123.42 48.6316L125.4 48.9474L126.06 50.2105L127.38 51.1579L123.42 51.4737L120.12 50.2105L115.5 49.5789L110.88 47.0526L108.24 44.5263L104.94 42.9474L99.66 39.7895L93.72 37.2632L87.12 35.6842L81.84 32.2105L80.52 30.9474H79.86L77.22 37.5789L75.24 41.6842V45.1579L77.88 48.3158L78.54 48.6316L85.8 48.3158L93.72 47.6842H104.94L109.56 48.3158L112.86 49.5789L114.18 50.8421L121.44 52.1053L120.78 53.6842L115.5 54.9474L110.22 55.5789L105.6 58.1053L106.26 59.3684H122.1L123.42 58.7368L131.34 58.4211L135.96 57.1579H140.58L146.52 58.4211L148.5 59.0526H155.1L161.04 55.8947L162.36 54.6316L156.42 53.6842L151.14 53.3684L151.8 52.4211L159.06 50.5263H163.68L172.26 51.4737L182.16 51.7895L187.44 47.0526L192.72 43.8947L198 42L203.94 40.7368L211.86 38.8421L221.1 34.4211L228.36 29.3684L232.32 26.5263L235.62 25.5789L258.72 25.2632L262.68 24.3158L267.96 20.2105L270.6 19.2632L277.2 19.5789L287.1 20.8421L291.72 21.1579H306.24L314.16 20.2105L321.42 18.3158L326.04 16.1053L328.68 13.2632V8.8421L327.36 8.21053L322.74 8.52632L312.84 10.1053L306.24 10.7368H297.66L281.16 9.15789L271.92 7.89474L269.28 7.57895H259.38L253.44 8.52632L248.16 10.7368L245.52 13.2632L244.2 15.4737V18.3158L236.94 18L230.34 16.7368L220.44 13.5789L211.86 11.0526L204.6 9.47368L199.32 8.52632L188.1 7.57895H175.56L165.66 8.21053L163.68 8.52632L151.14 9.15789H126.72L122.76 8.21053L122.1 6.63158L123.42 6.31579L122.76 5.36842H116.16L112.2 5.68421L112.86 3.47368L115.5 2.21053V0.947368L113.52 0.631579H104.28Z" fill="#080808"/>
<path d="M104.28 0.631592H113.52L115.5 0.947381L114.84 2.52633L112.2 4.10528V5.68422L116.16 5.36843H122.76L123.42 6.3158L122.1 6.63159L120.78 7.57896H119.46L120.12 6.3158L109.56 7.26317L106.92 8.21054L107.58 9.4737L108.24 10.4211H101.64L91.7399 9.15791L73.9199 8.21054H64.6799L50.8199 8.52633L48.8399 9.15791L49.4999 10.4211L51.4799 12.9474V16.4211L47.5199 18L43.5599 18.3158L37.6199 17.0526L35.6399 16.4211V15.7895H25.7399L24.4199 16.4211L23.7599 17.6842H21.7799L22.4399 19.8947L15.1799 25.579L10.5599 28.7369L8.57995 30.3158L3.95995 30.9474L3.29995 31.8947H5.93995L7.25995 35.0526H18.4799L19.1399 32.8421L21.1199 31.2632L29.0399 27.4737L37.6199 24.9474L44.8799 23.0526L50.1599 20.5263L52.7999 17.3684H54.1199V19.2632L57.4199 19.8947L67.9799 22.7369L74.5799 24.9474L80.5199 27.1579V30L79.1999 30.6316L76.5599 28.1053L71.9399 25.579L62.0399 22.4211L55.4399 20.8421L52.1399 20.5263L50.8199 21.7895L45.5399 24L30.3599 28.4211L24.4199 31.2632L20.4599 34.4211L18.4799 36L15.1799 36.6316H9.23995L4.61995 35.6842L3.29995 34.7369L1.97995 32.5263L1.31995 32.2105V30L8.57995 24.3158L15.1799 19.579L18.4799 15.7895H19.1399V18.6316L21.1199 17.0526L22.4399 14.5263L26.3999 13.2632L32.3399 11.6842H33.6599V11.0526L27.0599 12L28.3799 10.7369L31.0199 10.4211V6.3158L33.6599 3.78949L35.6399 2.84212L38.9399 3.15791L42.8999 5.68422L45.5399 5.36843L54.7799 2.84212L58.7399 1.89475H62.6999L64.0199 3.15791L67.9799 2.84212L75.2399 1.57896H81.8399L82.4999 3.15791L87.1199 2.84212L97.6799 1.26317L104.28 0.631592Z" fill="#EFEFEF"/>
<path d="M115.5 6.3158H120.12L119.46 7.57895L112.86 8.52632L111.54 9.1579L112.2 10.7368L124.08 11.6842H151.8L167.64 10.7368L176.22 9.78948L181.5 9.47369H192.72L204.6 11.3684L214.5 13.8947L223.08 16.4211L233.64 18.6316L242.88 19.579H246.84L247.5 19.2632L248.16 15.1579L250.8 11.6842L255.42 9.78948L260.04 8.84211H269.94L288.42 10.7368L297 11.3684H310.2L320.76 10.1053L325.38 9.78948L326.7 10.4211V12.9474L324.06 15.4737L321.42 17.0526L315.48 18.9474L308.22 20.2105L304.92 20.5263H297.66L288.42 19.8947L273.9 18.3158H267.96L264.66 19.8947L260.7 22.7368L258.72 23.3684L257.4 22.7368L260.04 22.4211L261.36 20.8421L264.66 17.6842L267.96 16.4211H273.9L285.78 18L291.72 18.3158H307.56L314.82 17.0526L318.78 15.7895L322.74 13.579L324.06 11.6842L313.5 12.9474H299.64L282.48 11.6842L267.3 9.78948H260.7L256.08 10.7368L253.44 12.3158L250.8 15.7895L248.82 19.8947L244.86 21.1579H239.58L229.68 19.579L217.14 16.4211L208.56 13.579L199.32 11.3684L189.42 10.1053H184.14L176.22 11.0526L168.96 12.9474L165 14.2105L163.02 14.5263H128.04L117.48 14.2105L115.5 14.8421L112.86 14.5263L110.22 13.579L102.96 13.2632L96.36 11.3684L92.4 10.7368L74.58 9.47369L64.68 9.1579L63.36 8.21053L64.68 7.89474H73.92L91.74 8.84211L101.64 10.1053L108.24 10.4211L106.26 9.1579L106.92 7.89474L109.56 6.94737L115.5 6.3158Z" fill="#151515"/>
<path d="M120.12 7.26318L124.74 8.84213L126.72 9.15792H151.14L163.68 8.52634L170.94 7.89476L175.56 7.57897H188.1L199.32 8.52634L209.22 10.4211L216.48 12.3158L222.42 14.2106L232.98 17.3684L236.94 18L244.2 18.3158V15.4737L246.18 12.3158L250.14 9.7895L254.76 8.21055L259.38 7.57897H269.28L279.84 8.84213L289.74 10.1053L297.66 10.7369H306.24L317.46 9.47371L324.72 8.21055L328.02 8.52634L328.68 8.84213V13.2632L325.38 16.4211L320.1 18.6316L314.16 20.2106L306.24 21.1579H291.72L282.48 20.2106L274.56 19.2632H270.6L267.3 20.5263L262.68 24.3158L258.72 25.2632L240.9 24.9474L241.56 24.3158L255.42 24L260.7 22.4211L265.32 18.9474L267.96 18H273.9L291.06 19.8948L297.66 20.2106H304.92L313.5 18.9474L318.78 17.6842L322.08 16.4211L324.72 14.5263L326.04 12.9474V10.4211L325.38 10.1053L320.76 10.4211L310.2 11.6842H297L281.16 10.4211L269.94 9.15792H260.04L253.44 10.7369L250.8 12.3158L248.82 15.1579L248.16 19.2632L246.84 19.8948L240.24 19.579L231.66 18.6316L221.1 16.1053L213.18 13.8948L202.62 11.3684L192.72 9.7895H181.5L170.94 10.7369L159.06 11.6842L151.8 12H124.08L112.2 11.0527L110.88 10.1053L111.54 8.84213L112.86 8.21055L120.12 7.26318Z" fill="#F4F5F5"/>
<path d="M116.16 4.73682H123.42L124.74 5.3684L124.08 6.94734H122.76L124.08 7.89471L128.7 8.52629H148.5L170.28 7.26313L175.56 6.94734H188.76L201.96 8.2105L211.86 10.1052L225.06 14.2105L232.32 16.421L238.26 17.3684L242.88 17.6842L243.54 13.8947L246.18 11.0526L250.8 8.52629L256.08 7.26313L258.72 6.94734H269.28L288.42 9.15787L295.68 9.78945L303.6 10.1052L313.5 9.15787L324.06 7.57892H328.68L330 8.52629V13.5789L327.36 16.421L324.06 18.3158L316.8 20.5263L310.86 21.4737L307.56 21.7894H291.72L282.48 20.8421L272.58 19.8947L268.62 21.1579L264 24.6316L260.04 25.8947L236.94 26.2105L232.32 27.4737L226.38 32.2105L221.1 35.3684L215.16 38.5263L209.22 40.421L198.66 42.6316L192.06 45.4737L186.78 48.9473L183.48 52.1052L181.5 52.7368L170.94 52.1052L163.02 51.1579L159.06 51.4737L153.78 52.7368L163.68 54L163.02 55.8947L155.76 60L148.5 59.6842L141.9 58.1052L137.28 57.7894L132.66 59.0526L124.74 59.3684L122.76 60H104.94L104.28 57.7894L107.58 55.5789H108.9V54.9473L114.84 54.3158H116.82V54.9473L110.22 55.8947L106.26 58.1052V59.0526H122.1L123.42 58.421L131.34 58.1052L135.96 56.8421H140.58L146.52 58.1052L148.5 58.7368H155.1L160.38 55.8947L161.7 54.9473L156.42 54L151.14 53.6842V52.421L157.74 50.5263L159.06 50.2105H163.68L172.26 51.1579L182.16 51.4737L186.78 47.0526L192.72 43.5789L198 41.6842L203.94 40.421L211.86 38.5263L220.44 34.421L227.7 29.3684L231.66 26.5263L235.62 25.2631L258.72 24.9473L262.68 24L266.64 20.5263L270.6 18.9473L277.2 19.2631L287.1 20.5263L291.72 20.8421H306.24L314.16 19.8947L321.42 18L326.04 15.4737L328.02 13.2631V8.84208L324.72 8.52629L317.46 9.78945L306.24 11.0526H297.66L281.16 9.47366L271.92 8.2105L269.28 7.89471H259.38L253.44 8.84208L248.82 10.7368L246.18 13.2631L244.86 15.4737L244.2 18.3158H236.94L230.34 17.0526L220.44 13.8947L211.86 11.3684L204.6 9.78945L199.32 8.84208L188.1 7.89471H175.56L165.66 8.52629L163.68 8.84208L151.14 9.47366H126.72L122.76 8.52629L121.44 7.89471L122.1 6.31576H123.42L122.76 5.68418L115.5 5.3684L116.16 4.73682Z" fill="#0D0D0D"/>
<path d="M236.28 24.3158H241.56V24.6316L255.42 24.9474V25.2632L235.62 25.579L231.66 26.8421L224.4 32.2105L219.12 35.3684L211.86 38.8421L203.94 40.7368L198 42L192.06 44.2105L186.78 47.6842L182.16 51.7895L172.26 51.4737L163.68 50.5263H159.06L151.8 52.4211L151.14 53.3684L158.4 54L162.36 54.6316L159.72 56.5263L155.1 59.0526H148.5L144.54 57.7895L140.58 57.1579H135.96L131.34 58.4211L123.42 58.7368L122.1 59.3684H106.26L105.6 58.1053L110.22 55.579L111.54 55.2632H115.5L114.18 56.5263H110.88L108.24 57.7895L107.58 58.7368L118.8 58.4211L122.1 57.7895L130.02 57.4737L133.98 55.8947L139.26 54.6316L141.24 53.6842L144.54 52.7368L148.5 51.4737L155.1 49.8947L161.04 48.9474L174.24 48L182.16 44.5263L189.42 42.3158L204.6 39.1579L211.2 37.579L216.48 35.3684L221.1 32.2105L227.7 27.1579L232.32 24.9474L236.28 24.3158Z" fill="#E7E7E7"/>
<path d="M79.86 30.9474L81.18 31.2632L83.82 33.7895L87.78 36L94.38 37.579L100.98 40.4211L106.26 43.8948L109.56 45.4737L112.2 48L114.18 49.2632H112.2L108.24 48L104.94 47.6842H93.72L81.84 48.6316H78.54L75.9 46.4211L75.24 45.1579V41.6842L77.88 36.6316L79.86 30.9474Z" fill="#EEEEEE"/>
<path d="M161.04 32.5264H164.34L165 33.1579V36.3158L163.02 39.4737L160.38 41.3685L157.08 42.9474L152.46 43.8948L143.22 44.2106L132 47.3685L129.36 47.0527V46.1053L132 45.4737L133.98 43.8948L139.26 42.3158L141.9 40.4211V39.1579H128.7L125.4 40.7369H122.76L122.1 40.1053V37.2632L122.76 36.9474L139.26 36.0001L149.16 34.7369L155.76 33.4737L161.04 32.5264Z" fill="#FAFAFA"/>
<path d="M115.5 6.3158H120.12L119.46 7.57895L112.86 8.52632L111.54 9.1579L112.2 10.7368L124.08 11.6842H151.8L167.64 10.7368L176.22 9.78948H182.16L180.18 10.4211L172.26 12L165 14.2105L163.02 14.5263H128.04L117.48 14.2105L115.5 14.8421L112.86 14.5263L110.22 13.579L102.96 13.2632L96.36 11.3684L92.4 10.7368L74.58 9.47369L64.68 9.1579L63.36 8.21053L64.68 7.89474H73.92L91.74 8.84211L101.64 10.1053L108.24 10.4211L106.26 9.1579L106.92 7.89474L109.56 6.94737L115.5 6.3158Z" fill="#0D0D0D"/>
<path d="M259.38 7.57898H269.28L279.84 8.84214L289.74 10.1053L297.66 10.7369H306.24L317.46 9.47372L324.72 8.21056L328.02 8.52635L328.68 8.84214V13.2632L325.38 16.4211L320.1 18.6316L314.16 20.2106L306.24 21.1579H291.72L282.48 20.2106L274.56 19.2632H270.6L267.3 20.5263L262.68 24.3158L258.72 25.2632L240.9 24.9474L241.56 24.3158L255.42 24L260.7 22.4211L265.32 18.9474L267.96 18H273.9L291.06 19.8948L297.66 20.2106H304.92L313.5 18.9474L318.78 17.6842L322.08 16.4211L324.72 14.5263L326.04 12.9474V10.4211L325.38 10.1053L320.76 10.4211L310.2 11.6842H297L281.16 10.4211L269.94 9.15793H260.04L253.44 10.7369L250.8 12.3158L248.82 15.1579L248.16 19.2632L246.84 19.8948L240.24 19.579L236.94 19.2632L238.92 18.9474V18.3158H244.2V15.4737L246.18 12.3158L250.14 9.78951L254.76 8.21056L259.38 7.57898Z" fill="#EFEFEF"/>
<path d="M81.1801 33.7894L83.8201 35.0526L86.4601 36.6315L89.7601 37.8947L89.1001 39.4736L86.4601 41.3684L87.1201 43.5789L87.7801 43.8947L100.32 44.2105L104.28 43.8947L106.92 45.4736L107.58 46.7368L104.94 47.0526H93.7201L86.4601 47.3684L84.4801 47.6842H79.8601L76.5601 44.5263V42.6315L78.5401 40.1052L80.5201 34.1052L81.1801 33.7894Z" fill="#0F0F0F"/>
<path d="M102.96 0H114.84L116.82 0.631579V2.52632L112.86 5.05263L116.16 5.36842L114.84 6L111.54 5.68421L112.2 3.47368L114.84 2.21053L115.5 0.947369H104.28L90.42 2.52632L85.8 3.47368H82.5L81.84 3.15789V1.57895L75.24 1.89474L66.66 3.47368L63.36 3.15789L62.7 2.21053H58.74L47.52 5.05263L44.88 6L42.24 5.68421L40.26 4.73684L38.28 3.15789L34.98 3.47368L32.34 5.36842L31.68 6.31579L31.02 10.4211L28.38 11.0526V11.6842L31.02 11.0526H33.66V11.6842L26.4 13.5789L23.76 14.5263H22.44L21.12 17.6842L18.48 18.9474V16.1053L15.18 20.2105L5.94 26.8421L1.98 30L1.32 31.5789L0 30.6316L0.66 29.0526L7.26 24L14.52 18.6316L16.5 14.8421L21.12 12.3158L27.72 10.1053L29.04 9.78947L30.36 5.05263L33 2.84211L34.98 2.21053H38.94L41.58 3.78947L44.22 5.05263L50.16 3.15789L58.08 1.26316L62.04 0.947369L64.02 1.26316L64.68 2.84211L72.6 1.26316L75.24 0.947369H82.5L84.48 2.52632L94.38 0.947369L102.96 0Z" fill="#0C0C0C"/>
<path d="M161.04 31.8948H164.34L166.32 33.1579V36L165 38.5264L161.7 41.6842L156.42 43.8948L152.46 44.5264L143.22 44.8421L133.32 47.6842H129.36L127.38 46.7369L128.04 45.7895L132 44.5264L133.98 43.2632L132 43.579L130.02 45.1579L127.38 45.7895L124.74 45.4737L123.42 43.2632V42.3158L126.72 41.6842L129.36 39.7895H139.26L139.92 40.4211L137.28 42.3158L139.92 41.0527L141.9 39.4737L128.7 39.7895L126.06 41.3685L122.76 41.6842L121.44 40.7369V36.6316L122.1 36.3158L135.96 35.6842L152.46 33.4737L161.04 31.8948ZM161.04 32.5264L149.82 34.4211L143.88 35.3685L134.64 36.3158L122.76 36.9474L122.1 37.2632V40.1053L123.42 41.0527L126.06 40.4211L128.7 39.1579H141.9L141.24 41.0527L137.94 42.9474L133.98 43.8948L132 45.4737L128.7 46.4211L130.02 47.3685L133.32 47.0527L143.22 44.2106L152.46 43.8948L157.08 42.9474L160.38 41.3685L163.68 38.8421L165 36.3158V33.1579L164.34 32.5264H161.04Z" fill="#383839"/>
<path d="M104.94 1.26318H111.54L112.86 1.89476L107.58 3.7895L104.28 4.10529V4.73687L97.02 5.36845L99.66 6.00003V6.94739L101.64 7.26318V8.21055H96.36L83.82 7.26318L75.9 6.94739H61.38V6.00003L71.28 3.47371L76.56 2.52634H80.52L79.86 3.47371L73.92 5.36845H72.6V6.00003L80.52 5.68424L94.38 2.84213L104.94 1.26318Z" fill="#0B0B0B"/>
<path d="M116.16 4.73682H123.42L124.74 5.3684L124.08 6.94734H122.76L124.08 7.89471L128.7 8.52629H148.5L170.28 7.26313L175.56 6.94734H188.76L201.96 8.2105L211.86 10.1052L225.06 14.2105L232.32 16.421L238.26 17.3684L242.88 17.6842L243.54 13.8947L246.18 11.0526L250.8 8.52629L256.08 7.26313L258.72 6.94734H269.28L280.5 8.2105L281.16 8.84208H276.54L269.28 7.89471H259.38L253.44 8.84208L248.82 10.7368L246.18 13.2631L244.86 15.4737L244.2 18.3158H236.94L230.34 17.0526L220.44 13.8947L211.86 11.3684L204.6 9.78945L199.32 8.84208L188.1 7.89471H175.56L165.66 8.52629L163.68 8.84208L151.14 9.47366H126.72L122.76 8.52629L121.44 7.89471L122.1 6.31576H123.42L122.76 5.68418L115.5 5.3684L116.16 4.73682Z" fill="#080808"/>
<path d="M52.8 17.3684H54.12V19.2631L57.42 19.8947L67.98 22.7368L74.58 24.9474L80.52 27.1579V30L79.2 30.6316L76.56 28.1052L71.94 25.5789L62.04 22.421L55.44 20.8421L52.14 20.5263L50.82 21.7895L45.54 24L30.36 28.421L24.42 31.2631L20.46 34.421L18.48 36L15.18 36.6316H9.23998L4.61998 35.6842L3.29998 34.7368L1.97998 31.8947H5.93998L7.25998 35.0526H18.48L19.14 32.8421L21.12 31.2631L29.04 27.4737L37.62 24.9474L44.88 23.0526L50.16 20.5263L52.8 17.3684Z" fill="#E5E5E5"/>
<path d="M164.34 28.7368H168.96L170.28 30.6316V32.8421L168.3 37.8947L166.98 39.7894L162.36 42.9473L161.7 43.5789L157.74 44.5263L153.12 46.421L145.86 48H144.54V47.3684L138.6 48.3158L135.3 49.2631L132.66 48.9473V48L137.94 46.421L139.92 45.4737L143.22 44.5263L152.46 44.2105L157.74 43.2631L162.36 40.7368L165 37.8947L165.66 36V33.1579L162.36 31.2631L163.02 29.0526L164.34 28.7368Z" fill="#F5F5F5"/>
<path d="M161.7 30.9474L163.02 31.2632L163.68 31.8948L150.48 34.1053L135.96 36L122.1 36.6316V40.7369L122.76 41.3684H126.06L127.38 40.1053L128.7 39.4737H141.9L140.58 41.0527L137.94 42.6316L136.62 42.3158L139.26 40.4211V40.1053H129.36L126.72 42L123.42 42.3158L124.74 45.1579L127.38 45.4737L130.02 44.8421L132.66 42.9474L135.3 43.2632L132 44.8421L128.04 46.1053L129.36 47.6842L128.7 48.3158L126.72 48V47.3684L122.76 45.4737L121.44 42.6316L118.8 39.4737L118.14 38.2105L116.16 37.579L116.82 34.7369L117.48 33.7895H120.78V35.3684L124.08 34.4211H134.64L146.52 32.8421L161.04 31.2632L161.7 30.9474Z" fill="#F3F3F3"/>
<path d="M145.86 53.6842H149.16V54.3158L146.52 54.6316V55.2632L150.48 55.5789V57.1579L155.1 56.8421L156.42 55.8947H157.74V55.2632L153.12 54.6316V54L156.42 53.6842L162.36 54.6316L159.72 56.5263L155.1 59.0526H148.5L144.54 57.7895L140.58 57.1579H135.96L131.34 58.421L123.42 58.7368L122.1 59.3684H106.26L105.6 58.1053L110.22 55.5789L111.54 55.2632H115.5L114.18 56.5263H110.88L108.24 57.7895L107.58 58.7368L118.8 58.421L122.1 57.7895L130.02 57.4737L133.98 55.8947L136.62 55.2632H140.58L145.86 53.6842Z" fill="#F4F4F4"/>
<path d="M324.06 7.57898H328.68L330 8.52635V13.579L327.36 16.4211L324.06 18.3158L316.8 20.5263L310.86 21.4737L307.56 21.7895H291.72L282.48 20.8421L272.58 19.8948L268.62 21.1579L265.32 22.1053L266.64 20.5263L270.6 18.9474L277.2 19.2632L287.1 20.5263L291.72 20.8421H306.24L314.16 19.8948L321.42 18L326.04 15.4737L328.02 13.2632V8.84214L324.72 8.52635L317.46 9.78951L306.24 11.0527H297.66L281.16 9.47372L279.84 8.84214L282.48 8.52635L295.68 9.78951L303.6 10.1053L313.5 9.15793L324.06 7.57898Z" fill="#080809"/>
<path d="M18.4799 15.7894H19.1399V18.6315L21.7799 17.0526L22.4399 19.8947L15.1799 25.5789L10.5599 28.7368L8.57995 30.3157L3.95995 30.9473L3.29995 31.8947L1.31995 32.2105V30L8.57995 24.3157L15.1799 19.5789L18.4799 15.7894Z" fill="#F2F2F2"/>
<path d="M259.38 7.57898H269.28L279.84 8.84214L289.74 10.1053L295.68 10.4211L293.04 11.3685L275.22 9.78951L269.94 9.15793H260.04L253.44 10.7369L250.8 12.3158L248.82 15.1579L248.16 19.2632L246.84 19.8948L240.24 19.579L236.94 19.2632L238.92 18.9474V18.3158H244.2V15.4737L246.18 12.3158L250.14 9.78951L254.76 8.21056L259.38 7.57898Z" fill="#EAEAEA"/>
<path d="M260.04 8.84216H263.34L262.68 9.47374L256.74 10.4211L253.44 12.3158L250.8 15.7895L248.82 19.8948L244.86 21.158H239.58L229.68 19.579L217.14 16.4211L208.56 13.579L199.32 11.3685L189.42 10.1053H182.16L181.5 9.47374H192.72L204.6 11.3685L214.5 13.8948L223.08 16.4211L233.64 18.6316L242.88 19.579H246.84L247.5 19.2632L248.16 15.158L250.8 11.6843L255.42 9.78953L260.04 8.84216Z" fill="#1D1D1D"/>
<path d="M52.14 20.5264L56.76 20.8422L65.34 23.0527L73.26 25.8948L78.54 29.0527L79.2 30.6316L77.22 30.3158L73.92 27.7895L68.64 25.2632L58.74 22.4211L53.46 21.4737L50.16 23.0527L43.56 25.579L32.34 28.7369L26.4 31.2632L21.78 34.7369L19.8 36.3158L13.86 37.579L8.58 37.2632L3.96 36.3158L1.98 35.0527L0 32.5264V30.6316L1.32 31.579L3.3 33.1579L4.62 35.3685L9.24 36.3158H15.18L19.14 35.3685L22.44 32.2106L28.38 29.0527L33.66 27.1579L45.54 23.6843L51.48 21.1579L52.14 20.5264Z" fill="#0C0C0C"/>
<path d="M83.16 34.421H85.14L87.78 36L94.38 37.5789L100.98 40.421L101.64 41.6842L100.98 42.9473L98.34 43.5789H90.42L85.8 42.9473V41.3684L89.1 38.8421L88.44 37.5789L83.82 35.6842L83.16 34.421Z" fill="#969696"/>
<path d="M52.8 13.579L56.1 14.2106L65.3401 17.3685L77.8801 21.1579L84.4801 23.6842L88.4401 24.6316L87.7801 25.8948L85.1401 26.5263L84.4801 29.0527L83.1601 28.4211L81.8401 24.9474L75.9001 22.7369L62.0401 18.6316L54.78 15.7895L52.8 15.1579V13.579Z" fill="#F1F1F1"/>
<path d="M26.4 10.421H27.72L28.38 11.6842L31.02 11.0526H33.66V11.6842L26.4 13.5789L23.76 14.5263H22.44L21.12 17.6842L18.48 18.9473V16.1052L15.18 20.2105L5.94 26.8421L1.98 30L1.32 31.5789L0 30.6315L0.66 29.0526L7.26 24L14.52 18.6315L16.5 14.8421L21.12 12.3158L26.4 10.421Z" fill="#0D0D0D"/>
<path d="M191.4 42.6316H192.72V43.2632L186.78 45.4737L180.84 50.8421L180.18 51.1579L171.6 50.8421L163.02 49.8947V49.579L174.24 48.9474L179.52 46.7369L184.14 44.5263L189.42 42.9474L191.4 42.6316Z" fill="#141414"/>
<path d="M161.04 31.8948H164.34L166.32 33.1579V36L165 38.5264L161.7 41.6842L156.42 43.8948L152.46 44.5264L143.22 44.8421L135.3 47.0527L133.98 46.4211L143.22 43.8948L152.46 43.579L157.08 42.6316L160.38 41.0527L163.02 38.8421L164.34 36.3158V32.5264L155.76 33.7895L149.16 35.0527L139.26 36.3158L129.36 36.9474H124.74L122.1 36.3158L135.96 35.6842L152.46 33.4737L161.04 31.8948Z" fill="#353535"/>
<path d="M157.74 49.2632H161.04L160.38 50.2106L151.8 52.4211L151.14 53.3684L154.44 53.6842L153.12 54L153.78 54.6316L157.74 55.2632V55.8948H156.42L155.1 57.1579H150.48L149.82 55.8948L146.52 55.579V54.3158H149.16V53.6842L143.22 54.6316L139.92 55.579L138.6 54.9474L141.24 53.6842L144.54 52.7369L148.5 51.4737L155.1 49.8948L157.74 49.2632Z" fill="#EDEDED"/>
<path d="M149.82 47.6842H153.78L153.12 48.9474L149.16 49.8947L147.18 50.5263L143.22 51.1579L137.28 53.0526L132 54.9474L130.68 55.2632H124.08L125.4 54L132.66 52.1053L141.9 49.5789L145.86 48.3158L149.82 47.6842Z" fill="#F1F1F1"/>
<path d="M31.6801 18L34.3201 18.3158V20.5263L31.0201 22.4211L23.1001 24H21.7801L21.1201 25.5789L16.5001 27.7895L15.1801 28.1053L11.8801 30.9474L10.5601 31.2632L11.2201 29.3684L17.8201 25.2632L21.7801 23.3684L25.0801 20.5263L28.3801 18.6316L31.6801 18Z" fill="#F6F6F6"/>
<path d="M114.84 33.7894L117.48 34.1052L116.82 37.5789L118.8 38.2105L121.44 42L122.76 43.2631L123.42 45.4736L128.04 47.6842L126.06 48L119.46 45.7894L118.8 45.4736L116.82 41.0526L112.2 37.2631L112.86 34.7368L114.84 33.7894Z" fill="#0D0D0D"/>
<path d="M104.28 0.631592L106.92 0.947381L102.3 1.89475L91.08 3.78949L80.52 6.00001H72.6V5.36843L79.86 3.15791L80.52 2.52633L78.54 2.21054L75.24 1.89475V1.57896H81.84L82.5 3.15791L87.12 2.84212L97.68 1.26317L104.28 0.631592Z" fill="#EBEBEB"/>
<path d="M267.96 18H273.9L277.2 18.3158L276.54 18.9474L270.6 19.2632L267.3 20.5263L262.68 24.3158L258.72 25.2632L240.9 24.9474L241.56 24.3158L255.42 24L260.7 22.4211L265.32 18.9474L267.96 18Z" fill="#F2F2F2"/>
<path d="M320.1 17.0526L321.42 17.3684L320.1 18.6316L314.16 20.2105L306.24 21.1579H291.72L282.48 20.2105L274.56 19.2631L276.54 18.6316L282.48 18.9473L291.06 19.8947L297.66 20.2105H304.92L313.5 18.9473L318.78 17.6842L320.1 17.0526Z" fill="#E9EAEA"/>
<path d="M258.72 6.94739H269.28L280.5 8.21055L281.16 8.84212H276.54L269.28 7.89476H259.38L253.44 8.84212L248.82 10.7369L246.18 13.2632L244.86 15.4737L244.2 18.3158H236.94L236.28 17.3684L242.88 17.6842L243.54 13.8948L246.18 11.0527L250.8 8.52634L256.08 7.26318L258.72 6.94739Z" fill="#040404"/>
<path d="M145.86 53.6842H149.16V54.3158L146.52 54.6316V55.2632L150.48 55.5789V57.1579L155.1 56.8421L156.42 55.8947H157.74V55.2632L153.12 54.6316L155.76 54.3158L159.72 54.9474L159.06 56.2105L155.1 58.1053L148.5 58.421L145.2 57.1579L139.26 56.2105L141.9 54.6316L145.86 53.6842Z" fill="#101010"/>
<path d="M236.28 24.3158H241.56V24.6316L255.42 24.9474V25.2632L235.62 25.579L231.66 26.8421L224.4 32.2105L219.78 35.0526L217.14 34.7368L221.1 32.2105L227.7 27.1579L232.32 24.9474L236.28 24.3158Z" fill="#EBEBEB"/>
<path d="M190.74 7.26318L196.68 7.57897L205.92 8.84213L215.16 11.0527L225.06 14.2106L232.32 16.4211L236.28 17.3684V18L230.34 17.0527L220.44 13.8948L211.86 11.3684L204.6 9.7895L199.32 8.84213L190.74 7.89476V7.26318Z" fill="#111111"/>
<path d="M120.78 37.2632H121.44L122.1 40.7369L122.76 41.3684H126.06L127.38 40.1053L128.7 39.4737H141.9L140.58 41.0527L137.94 42.6316L136.62 42.3158L139.26 40.4211V40.1053H129.36L126.72 42L123.42 42.3158L124.74 45.1579L127.38 45.4737L130.02 44.8421L132.66 42.9474L135.3 43.2632L132 44.8421L128.04 46.1053L129.36 47.6842L128.7 48.3158L126.72 48V47.3684L122.76 45.4737L121.44 42.6316L120.12 41.3684L120.78 37.2632Z" fill="#D5D5D5"/>
<path d="M23.76 30.6316L24.42 31.2632L20.46 34.4211L18.48 36L15.18 36.6316H9.23998L4.61998 35.6842L3.29998 34.7369L1.97998 31.8947H5.93998L7.25998 35.0526H18.48L19.14 32.8421L23.76 30.6316Z" fill="#ECECEC"/>
<path d="M129.36 40.7368H135.3L134.64 42L132 42.9473L130.02 45.1579L127.38 45.7894L124.74 45.4737L123.42 43.2631V42.3158L126.72 41.6842L127.38 41.0526L129.36 40.7368Z" fill="#131414"/>
<path d="M58.08 1.26318H60.06V1.89476L47.52 5.05266L44.88 6.00003L42.24 5.68424L40.26 4.73687L38.28 3.15792L34.98 3.47371L32.34 5.36845L31.68 6.31582L31.02 10.4211L27.72 11.0527L29.04 9.7895L30.36 5.05266L33 2.84213L34.98 2.21055H38.94L41.58 3.7895L44.22 5.05266L50.16 3.15792L58.08 1.26318Z" fill="#0C0C0C"/>
<path d="M144.54 44.842H152.46V45.7894L144.54 47.3684L138.6 48.3157L135.3 49.2631L132.66 48.9473V47.9999L137.94 46.421L144.54 44.842Z" fill="#101010"/>
<path d="M93.72 47.3684H104.94L109.56 48L113.52 49.5789L114.18 50.5263L122.1 52.1053L121.44 53.6842L117.48 54.9474V54L120.12 52.421L114.18 51.7895L111.54 50.2105L109.56 49.2631L106.92 48.6316L98.34 48.3158H91.08L89.76 47.6842L93.72 47.3684Z" fill="#0E0E0E"/>
<path d="M186.78 42.9474H188.1L187.44 43.8948L182.16 45.7895L175.56 48.9474L174.24 49.2632L166.98 49.579L165.66 49.8948L175.56 50.8421L174.24 51.4737L165.66 50.8421L160.38 50.2105L161.04 48.9474L174.24 48L182.16 44.5263L186.78 42.9474Z" fill="#E3E3E3"/>
<path d="M114.84 54.3158H116.82V54.9474L110.22 55.8947L106.26 58.1053V59.0526H122.1L123.42 58.4211H132L131.34 59.0526L124.74 59.3684L122.76 60H104.94L104.28 57.7895L107.58 55.579H108.9V54.9474L114.84 54.3158Z" fill="#050505"/>
<path d="M91.7399 39.158L95.0399 39.4737L99.6599 41.6843L98.9999 42.9474H89.0999L88.4399 41.3685L91.0799 39.4737L91.7399 39.158Z" fill="#F2F2F2"/>
<path d="M31.0199 11.0526H33.6599V11.6842L26.3999 13.5789L23.7599 14.5263H22.4399L21.1199 17.6842L18.4799 18.9473V16.1052L17.8199 15.1579L22.4399 12.6316L26.3999 11.3684L28.3799 11.6842L31.0199 11.0526Z" fill="#DEDEDE"/>
<path d="M35.64 3.78943H37.62L40.92 6.94732L40.26 8.52627L39.6 9.47364L46.86 9.15785L45.54 10.1052L42.9 10.421L42.24 10.7368H37.62V7.26311L36.3 6.63153V7.5789L34.32 7.26311L33.66 5.36838L35.64 3.78943Z" fill="#0D0E0E"/>
<path d="M14.52 21.7894L15.18 23.0526L11.22 25.8947L5.28001 29.6842L2.64001 28.7368L11.88 22.1052L14.52 21.7894Z" fill="#E0E0E0"/>
<path d="M266.64 21.4736L267.3 22.1052L263.34 24.9473L260.04 25.8947L235.62 26.2105L236.28 25.5789L238.26 25.2631L258.72 24.9473L262.68 23.9999L264.66 22.1052L266.64 21.4736Z" fill="black"/>
<path d="M69.3 23.6842L72.6 24.3158L79.86 26.8421L80.52 27.1579V30L79.2 30.6316L76.56 28.1053L71.94 25.5789L68.64 24L69.3 23.6842Z" fill="#EEEEEE"/>
<path d="M281.16 8.52637L295.68 9.78953L307.56 10.1053V10.7369L306.24 11.0527H297.66L281.16 9.47374L279.84 8.84216L281.16 8.52637Z" fill="#1B1B1B"/>
<path d="M154.44 53.6842L161.04 54.3158L162.36 54.9474L156.42 58.421L155.1 59.0526H148.5L144.54 57.7895L140.58 57.1579L141.9 56.5263L145.2 56.8421L148.5 58.1053L155.1 57.7895L159.06 55.8947L159.72 54.9474L153.12 54.3158L154.44 53.6842Z" fill="#DBDBDB"/>
<path d="M184.14 44.5264L185.46 44.8422L176.88 48.9474V50.8422H171.6L163.02 49.8948V49.579L174.24 48.9474L179.52 46.7369L184.14 44.5264Z" fill="#0D0D0D"/>
<path d="M58.74 2.84216H61.38L60.06 4.10532L56.76 6.00006L50.82 6.94743L47.52 7.26322L48.84 6.00006L55.44 3.78953L58.74 2.84216Z" fill="#0D0D0D"/>
<path d="M156.42 43.579H157.74L157.08 44.8421L153.12 46.4211L145.86 48H144.54V47.0527L152.46 45.4737V45.1579H144.54L140.58 46.1053L138.6 45.7895L143.22 44.5263L152.46 44.2106L156.42 43.579Z" fill="#E9E9E9"/>
<path d="M150.48 46.7368L153.12 47.3684V47.6842L144.54 48.9473L137.28 51.1579L130.02 53.0526L127.38 52.421L139.92 49.2631L150.48 46.7368Z" fill="#191919"/>
<path d="M50.8201 8.21057H63.3601L64.0201 8.84215L51.4801 9.78952L52.1401 11.3685L52.8001 12.9474H50.8201L48.1801 10.1053L48.8401 8.84215L50.8201 8.21057Z" fill="#2E2E2E"/>
<path d="M276.54 18.6316L282.48 18.9474L291.06 19.8947L297.66 20.2105L296.34 20.5263V21.1579L287.1 20.8421L274.56 19.2632L276.54 18.6316Z" fill="#E3E3E3"/>
<path d="M329.34 9.47363H330V13.5789L327.36 16.421L324.06 18.3157L316.8 20.5263L314.82 20.2105L320.1 18.3157L325.38 16.1052L328.02 13.2631L329.34 9.47363Z" fill="#0C0C0C"/>
<path d="M129.36 39.7894H139.26L139.92 40.421L137.28 42.3157L131.34 43.5789L132.66 42.3157L134.64 41.6842L135.3 40.7368L128.04 41.0526L129.36 39.7894Z" fill="#0F0F0F"/>
<path d="M175.56 6.94739H188.76L190.74 7.26318V7.89476H175.56L165.66 8.52634H161.04L161.7 7.89476L175.56 6.94739Z" fill="#020202"/>
<path d="M101.64 41.3684L104.28 42.6316V43.5789L100.32 44.5263L87.78 44.2105L86.46 42.9474L90.42 43.2631H98.34L100.98 42.9474L101.64 41.3684Z" fill="#F2F2F2"/>
<path d="M190.74 7.26318L196.68 7.57897L205.92 8.84213L212.52 10.4211L213.18 11.3684L209.22 10.7369L199.32 8.84213L190.74 7.89476V7.26318Z" fill="#161616"/>
<path d="M73.92 42.6316H74.58L77.22 47.0526L78.54 48.3158L91.08 48V48.6316L83.16 49.2632H77.88L75.9 48.3158L73.26 43.8947L73.92 42.6316Z" fill="#060606"/>
<path d="M83.16 36.9474L85.8 37.2632L87.78 37.8948L87.12 39.7895L84.48 41.3684H82.5L81.84 39.4737L83.16 36.9474Z" fill="#F5F5F5"/>
<path d="M104.28 42.9474L108.24 44.5263L112.2 48L114.18 49.2632H112.2L108.24 48L104.94 47.6842L106.92 47.3684L106.26 45.4737L104.28 44.2105L102.3 43.579H104.28V42.9474Z" fill="#E0E0E0"/>
<path d="M21.7801 23.3684L23.1001 24H21.7801L21.1201 25.5789L16.5001 27.7895L15.1801 28.1053L11.8801 30.9474L10.5601 31.2631L11.2201 29.3684L17.8201 25.2631L21.7801 23.3684Z" fill="#D8D8D8"/>
<path d="M145.86 34.421L149.16 34.7368V35.0526L139.26 36.3158L129.36 36.9473H124.74L122.1 36.3158L135.96 35.6842L145.86 34.421Z" fill="#343434"/>
<path d="M111.54 55.2632H115.5L114.18 56.5263H110.88L108.24 57.7895L107.58 58.7369L122.1 59.0527V59.3684H106.26L105.6 58.1053L110.22 55.579L111.54 55.2632Z" fill="#CDCDCD"/>
<path d="M161.04 31.8948H164.34L166.32 33.1579V36L165 36.9474L164.34 32.5264L155.76 33.7895L149.82 34.7369L147.84 34.4211L155.76 32.8421L161.04 31.8948Z" fill="#333434"/>
<path d="M0 30.6316L1.32 31.579L3.3 33.1579L4.62 35.3684L9.24 36.3158L13.86 36.9474V37.579L8.58 37.2632L3.96 36.3158L1.98 35.0526L0 32.5263V30.6316Z" fill="#070707"/>
<path d="M218.46 34.7368V35.6842L211.86 38.8421L207.24 40.1052L204.6 39.7894L207.9 38.5263L215.16 36L218.46 34.7368Z" fill="#F1F1F1"/>
<path d="M132.66 42.9474L135.3 43.2632L132 44.8421L128.04 46.1053L129.36 47.6842L128.7 48.3158L126.72 48V47.3684L122.76 45.4737L123.42 43.2632H124.08L125.4 45.4737L128.04 45.1579L130.02 44.8421L132.66 42.9474Z" fill="#CCCCCD"/>
<path d="M80.52 43.2632H83.82L85.8 44.2106L85.14 45.7895L81.84 46.1053L79.2 44.8421V44.2106H80.52V43.2632Z" fill="#EDEDED"/>
<path d="M78.54 34.1052L79.2 34.7368L76.56 41.0526L75.24 44.2105H74.58L73.92 41.3684L77.22 34.7368L78.54 34.1052Z" fill="#121212"/>
<path d="M113.52 0L116.82 0.631579V2.52632L112.86 5.05263L116.16 5.36842L114.84 6L111.54 5.68421L112.2 3.47368L114.84 2.21053L115.5 0.947368H113.52V0Z" fill="#161616"/>
<path d="M93.72 47.3684H104.94L106.92 48L106.26 48.3158H91.08L89.76 47.6842L93.72 47.3684Z" fill="#1E1E1E"/>
<path d="M14.52 21.7894L15.18 23.0526L11.22 25.8947L5.28 29.6842L4.62 29.0526L13.86 22.1052L14.52 21.7894Z" fill="#212121"/>
<path d="M161.04 48.9474L166.98 49.2632L165.66 49.8948L175.56 50.8421L174.24 51.4737L165.66 50.8421L160.38 50.2105L161.04 48.9474Z" fill="#D3D4D4"/>
<path d="M31.02 11.0526H33.66V11.6842L26.4 13.5789L23.76 14.5263H22.44L21.78 15.4737L21.12 14.5263L24.42 12.9473L31.02 11.0526Z" fill="#1D1D1D"/>
<path d="M155.76 8.21057H161.04L163.68 8.84215L151.14 9.47373H145.2L147.18 8.84215L148.5 8.52636L155.76 8.21057Z" fill="#141414"/>
<path d="M209.88 39.158L211.2 39.4737L209.22 40.4211L198.66 42.6316H196.68L199.98 41.0527L209.88 39.158Z" fill="#0B0B0B"/>
<path d="M314.16 19.8948L315.48 20.2106L313.5 21.1579L307.56 21.7895L296.34 21.4737V21.1579L310.2 20.5264L314.16 19.8948Z" fill="#1F1F1F"/>
<path d="M23.1 32.5264L23.76 33.1579L20.46 36.0001L17.82 36.9474L13.86 37.2632L11.88 36.6316L18.48 35.6843L21.78 32.8422L23.1 32.5264Z" fill="#101010"/>
<path d="M116.16 5.36841H122.76L123.42 6.31578L122.1 6.63157L120.78 7.57893H119.46L120.12 6.31578L114.18 6.63157L114.84 5.6842L116.16 5.36841Z" fill="#D4D4D4"/>
<path d="M135.3 42.9474L137.28 43.2632L133.98 43.8948L132.66 45.4737L129.36 46.7369L132 47.0527L134.64 46.7369L133.32 47.6842H129.36L127.38 46.7369L128.04 45.7895L132 44.5263L135.3 42.9474Z" fill="#232323"/>
<path d="M79.86 30.9474L81.18 31.2632L83.82 33.7895L84.48 34.4211L82.5 34.7369L81.18 34.1053L80.52 35.3684H79.2V32.8421L79.86 30.9474Z" fill="#ECECEC"/>
<path d="M114.84 54.3158H116.82V54.9474L110.22 55.8947L106.92 57.7895L105.6 56.8421L107.58 55.579H108.9V54.9474L114.84 54.3158Z" fill="#0A0A0A"/>
<path d="M120.78 37.2632H121.44L122.1 40.7369L122.76 41.3684L126.06 41.6842L125.4 42.3158H123.42V44.5263L122.1 43.2632L120.12 41.3684L120.78 37.2632Z" fill="#DFDFDF"/>
<path d="M31.6799 27.7894L32.9999 28.1052L29.6999 29.6842L24.4199 32.5263L22.4399 32.8421L23.7599 31.2631L30.3599 28.1052L31.6799 27.7894Z" fill="#080808"/>
<path d="M29.04 27.4736L30.36 27.7894L28.38 29.3684L24.42 30.9473L19.8 32.5263L21.12 31.2631L29.04 27.4736Z" fill="#E2E2E2"/>
<path d="M37.62 8.21057H38.28V9.78952L44.88 9.15794L46.86 9.47373L44.22 10.1053L42.24 10.7369H37.62V8.21057Z" fill="#313131"/>
<path d="M97.02 0.631592H99V1.26317L87.12 3.15791H85.8L86.46 2.21054L97.02 0.631592Z" fill="#080808"/>
<path d="M236.28 24.3158H241.56V24.6316L255.42 24.9474V25.2632H235.62L236.28 24.3158Z" fill="#C2C2C2"/>
<path d="M25.74 24H29.04V24.6316L23.76 26.2105L19.8 27.7895H18.48V27.1579L23.1 25.2632L25.74 24Z" fill="#D8D8D9"/>
<path d="M213.18 10.7368L219.12 12.3158L224.4 14.2105L223.74 14.8421L217.14 12.9473L213.18 11.6842V10.7368Z" fill="#0A0A0A"/>
<path d="M121.44 36.6316H124.74L122.76 37.2632V40.1053L123.42 40.7369L125.4 40.4211L128.04 39.1579V40.1053L124.74 41.6842L122.1 41.3684L121.44 40.7369V36.6316Z" fill="#2A2A2A"/>
<path d="M42.24 24.6316L43.56 24.9474L40.26 26.5263L33.66 28.4211L32.34 28.1053V27.4737L42.24 24.6316Z" fill="#101010"/>
<path d="M293.7 10.7368L307.56 11.0526V11.6842H297L293.04 11.3684L293.7 10.7368Z" fill="#FBFBFB"/>
<path d="M170.94 51.158L182.16 51.7895L181.5 52.7369L170.94 52.1053V51.158Z" fill="#131313"/>
<path d="M297.66 10.1052H307.56V10.7368L306.24 11.0526H297.66V10.1052Z" fill="#232323"/>
<path d="M170.28 7.26318H174.24L175.56 7.89476L165.66 8.52634H161.04L161.7 7.89476L170.28 7.26318Z" fill="#080808"/>
<path d="M31.02 4.73682H31.68L31.02 10.421L27.72 11.0526L29.04 9.78945L30.36 5.05261L31.02 4.73682Z" fill="#050505"/>
<path d="M196.68 42L198 42.3158L192.06 45.4737L189.42 46.4211L188.1 46.1053L192.72 43.5789L196.68 42Z" fill="#121212"/>
<path d="M252.78 11.3684L253.44 12.3158L250.8 15.1579L248.82 15.4737L249.48 12.9474L252.78 11.3684Z" fill="#131313"/>
<path d="M129.36 40.7368H135.3L134.64 42L130.68 42.6316L129.36 42.3158V40.7368Z" fill="#EEEFEF"/>
<path d="M5.28 25.8948L5.94 26.8421L1.98 30L1.32 31.579L0 30.6316L0.66 29.0527L4.62 26.2106L5.28 25.8948Z" fill="#121212"/>
<path d="M233.64 24.6316L236.28 24.9474L234.3 25.8947L229.68 27.4737L227.7 27.7895L229.02 26.5263L233.64 24.6316Z" fill="#EDEDED"/>
<path d="M304.92 20.2106H308.88V20.8422L306.24 21.1579H296.34V20.5264L304.92 20.2106Z" fill="#FAFAFA"/>
<path d="M46.2 19.579L48.18 19.8948L44.22 22.4211H41.58L42.9 20.8421L46.2 19.579Z" fill="#EBEBEB"/>
<path d="M183.48 48.9474L184.14 49.8948L182.16 51.7895H177.54L174.24 51.4737V51.1579L180.18 50.8421L183.48 48.9474Z" fill="#F3F3F3"/>
<path d="M270.6 18.9474H274.56L272.58 19.2632V19.8948L268.62 21.1579L265.32 22.1053L266.64 20.5263L270.6 18.9474Z" fill="#1A1A1A"/>
<path d="M160.38 56.5264V57.4737L155.76 60.0001L151.14 59.6843V59.3685H155.1L156.42 58.1053L160.38 56.5264Z" fill="#060606"/>
<path d="M78.54 34.7368L79.2 35.3684H80.52L79.2 40.1052L77.22 38.8421L77.88 36.6316L78.54 34.7368Z" fill="#D5D5D6"/>
<path d="M266.64 21.4736L267.3 22.1052L263.34 24.9473L260.04 25.5789L258.72 24.9473L262.68 23.9999L264.66 22.1052L266.64 21.4736Z" fill="#0C0C0C"/>
<path d="M263.34 18.6316H265.32L264 20.2105L260.7 22.7369L258.72 23.3684L257.4 22.7369L260.04 22.4211L261.36 20.8421L263.34 18.6316Z" fill="#222222"/>
<path d="M276.54 18.6316L282.48 18.9474L284.46 19.579L283.8 20.2105L274.56 19.2632L276.54 18.6316Z" fill="#D3D3D4"/>
<path d="M248.16 15.1578H250.8L249.48 19.2631L248.16 19.8947L247.5 19.2631L248.16 15.1578Z" fill="#353535"/>
<path d="M118.8 51.7894L122.1 52.1052L121.44 53.6842L117.48 54.9473V54L120.12 52.421H118.8V51.7894Z" fill="#141414"/>
<path d="M151.14 45.7894L153.12 46.1052L150.48 47.0526L144.54 48V47.0526L151.14 45.7894Z" fill="#E4E4E4"/>
<path d="M116.16 4.73682H123.42L124.74 5.3684L124.08 6.94734L122.76 6.63155V5.68418L115.5 5.3684L116.16 4.73682Z" fill="#010101"/>
<path d="M128.04 36H133.32L134.64 36.6316L124.74 36.9474L122.1 36.3158L128.04 36Z" fill="#454545"/>
<path d="M270.6 7.26318L277.86 7.89476L281.16 8.52634V8.84213H276.54L270.6 7.89476V7.26318Z" fill="#0A0A0A"/>
<path d="M135.96 56.842H140.58L139.26 57.4736L133.32 58.7368H131.34V58.1052L135.96 56.842Z" fill="#121212"/>
<path d="M156.42 43.579H157.74L157.08 44.8421L154.44 46.1053H152.46V44.8421L156.42 43.579Z" fill="#EDEDED"/>
<path d="M23.76 30.6316L24.42 31.2632L19.8 34.7369H19.14V32.8421L23.76 30.6316Z" fill="#F1F1F1"/>
<path d="M15.18 25.8948L15.84 26.8421L12.54 29.0527L9.90002 29.3685L11.22 27.7895L14.52 26.2106L15.18 25.8948Z" fill="#141414"/>
<path d="M251.46 8.21057H252.78V9.15794L248.82 10.7369L246.84 12L246.18 11.0527L250.8 8.52636L251.46 8.21057Z" fill="#0C0C0C"/>
<path d="M190.74 7.26318L196.68 7.57897L200.64 8.21055V8.52634H195.36L190.74 7.89476V7.26318Z" fill="#121212"/>
<path d="M153.12 54.3158L158.4 54.6316L159.72 54.9474L159.06 56.2105L157.74 56.8421L155.76 56.5263L156.42 55.8947H157.74V55.2632L153.12 54.6316V54.3158Z" fill="#282829"/>
<path d="M160.38 53.6842L163.68 54L163.02 55.8947L159.72 57.1579L158.4 56.8421L161.7 54.9474L160.38 53.6842Z" fill="#0D0D0D"/>
<path d="M324.72 7.57898H328.68L330 8.52635L329.34 12H328.68L328.02 8.84214L324.06 8.21056L324.72 7.57898Z" fill="#121212"/>
<path d="M80.52 0.947388L83.16 1.26318L84.48 2.52634H85.8V3.4737H82.5L81.84 3.15791V1.57897H80.52V0.947388Z" fill="#19191A"/>
<path d="M186.78 42.9474H188.1L187.44 43.8948L182.16 45.7895L180.18 46.4211V45.4737L186.78 42.9474Z" fill="#D7D7D7"/>
<path d="M89.1 38.842L91.08 39.1578L88.44 40.7368L87.78 42.9473H85.8V41.3684L89.1 38.842Z" fill="#CDCDCD"/>
<path d="M114.84 2.84216V3.78953L112.86 5.05269L116.16 5.36848L114.84 6.00006L111.54 5.68427V4.10532L114.84 2.84216Z" fill="#0E0E0E"/>
<path d="M109.56 57.4736L119.46 58.1052V58.421H108.24L109.56 57.4736Z" fill="black"/>
<path d="M287.1 10.1052L295.68 10.421L293.04 11.3684L285.12 10.7368L287.1 10.1052Z" fill="#DCDDDD"/>
<path d="M104.28 0.631592L106.92 0.947381L102.3 1.89475L99.0001 2.21054V1.57896L97.6801 1.26317L104.28 0.631592Z" fill="#E0E0E0"/>
<path d="M132.66 42.9474L135.3 43.2632L132 44.8421L126.72 46.4211L128.04 45.1579L130.02 44.8421L132.66 42.9474Z" fill="#DDDDDD"/>
<path d="M155.76 32.8422L158.4 33.158L151.8 34.4211L147.84 34.7369L148.5 34.1053L155.76 32.8422Z" fill="#242525"/>
<path d="M25.74 23.0526L27.72 23.3684V24L24.42 24.6316L23.1 25.2631L21.12 24.9473L21.78 24L25.74 23.0526Z" fill="#222222"/>
<path d="M16.5 15.4736H17.16V17.9999L15.84 19.5789L13.86 19.2631L15.18 17.6842L16.5 15.4736Z" fill="#060606"/>
<path d="M289.08 9.47363L295.68 9.78942L297.66 10.1052V10.7368L289.74 10.421L289.08 9.47363Z" fill="#0D0D0D"/>
<path d="M85.8 48H91.08V48.6316L83.16 48.9474L81.84 48.3158L85.8 48Z" fill="#111111"/>
<path d="M126.06 42.9474H128.7L129.36 44.5263L126.06 44.8421L125.4 43.2632L126.06 42.9474Z" fill="#EAEAEA"/>
<path d="M222.42 32.2106L223.08 33.1579L219.78 35.0527L217.14 34.7369L220.44 32.8422L222.42 32.2106Z" fill="#E2E2E2"/>
<path d="M14.5201 21.7894L15.1801 23.0526L11.2201 25.5789L10.5601 24.6315L14.5201 21.7894Z" fill="#171717"/>
<path d="M19.8 15.7894L21.78 16.1052L21.12 17.6842L18.48 18.9473L19.14 16.7368L19.8 15.7894Z" fill="#161616"/>
<path d="M179.52 48.6316H180.84L180.18 50.2105L176.88 50.5263L176.22 49.579L179.52 48.6316Z" fill="#E9E9E9"/>
<path d="M7.26002 26.2106L7.92001 27.1579L5.28001 29.0527L2.64001 28.7369L5.94001 26.5264L7.26002 26.2106Z" fill="#E8E8E8"/>
<path d="M324.72 15.4736L325.38 16.421L321.42 18.3157L319.44 17.9999L322.74 16.1052L324.72 15.4736Z" fill="#F4F4F4"/>
<path d="M329.34 9.47363H330V13.5789L329.34 14.5263L327.36 14.8421L329.34 9.47363Z" fill="#050505"/>
<path d="M132.66 51.158L134.64 51.4737L132 52.7369L129.36 53.0527L127.38 52.4211L132.66 51.158Z" fill="#212121"/>
<path d="M161.04 48.9474L166.98 49.2632L164.34 50.5263L160.38 50.2105L161.04 48.9474Z" fill="#CACACA"/>
<path d="M235.62 25.2632L238.26 25.579L234.96 26.5263L230.34 27.7895L231.66 26.5263L235.62 25.2632Z" fill="#1A1A1A"/>
<path d="M155.76 8.21057H161.04L163.68 8.84215L154.44 9.15794V8.52636L155.76 8.21057Z" fill="#181818"/>
</g>
<defs>
<clipPath id="clip0_11_54">
<rect width="330" height="60" fill="white"/>
</clipPath>
</defs>
</svg>
